inDegrees=no
num_controls=7
num_derivatives=13
num_iterations=125
num_multipliers=7
num_parameters=0
num_slacks=7
num_states=26
objective=5.205666
objective_accelerations=0.488557
objective_balance=0.050485
objective_effort=0.238297
objective_height=4.363045
objective_ligament=0.065281
solver_duration=1406.846507
status=Solve_Succeeded
success=true
DataType=double
version=3
OpenSimVersion=4.4-2022-07-23-0e9fedc
endheader
time	/jointset/ground_pelvis/pelvis_tilt/value	/jointset/ground_pelvis/pelvis_tx/value	/jointset/ground_pelvis/pelvis_ty/value	/jointset/hip_l/hip_flexion_l/value	/jointset/hip_l/hip_adduction_l/value	/jointset/hip_l/hip_rotation_l/value	/jointset/back/lumbar_extension/value	/jointset/patellofemoral_l/patellar_flexion_l/value	/jointset/knee_l/knee_flexion_l/value	/jointset/knee_l/knee_adduction_l/value	/jointset/knee_l/knee_rotation_l/value	/jointset/ankle_l/ankle_angle_l/value	/jointset/subtalar_l/subtalar_angle_l/value	/jointset/ground_pelvis/pelvis_tilt/speed	/jointset/ground_pelvis/pelvis_tx/speed	/jointset/ground_pelvis/pelvis_ty/speed	/jointset/hip_l/hip_flexion_l/speed	/jointset/hip_l/hip_adduction_l/speed	/jointset/hip_l/hip_rotation_l/speed	/jointset/back/lumbar_extension/speed	/jointset/patellofemoral_l/patellar_flexion_l/speed	/jointset/knee_l/knee_flexion_l/speed	/jointset/knee_l/knee_adduction_l/speed	/jointset/knee_l/knee_rotation_l/speed	/jointset/ankle_l/ankle_angle_l/speed	/jointset/subtalar_l/subtalar_angle_l/speed	/forceset/tau_hip_flexion_l	/forceset/tau_hip_adduction_l	/forceset/tau_hip_rotation_l	/forceset/tau_knee_flexion_l	/forceset/tau_ankle_angle_l	/forceset/tau_subtalar_angle_l	/forceset/tau_lumbar_extension	lambda_cid13_p0	lambda_cid13_p1	lambda_cid13_p2	lambda_cid13_p3	lambda_cid13_p4	lambda_cid13_p5	lambda_cid14_p0	/jointset/ground_pelvis/pelvis_tilt/accel	/jointset/ground_pelvis/pelvis_tx/accel	/jointset/ground_pelvis/pelvis_ty/accel	/jointset/hip_l/hip_flexion_l/accel	/jointset/hip_l/hip_adduction_l/accel	/jointset/hip_l/hip_rotation_l/accel	/jointset/back/lumbar_extension/accel	/jointset/patellofemoral_l/patellar_flexion_l/accel	/jointset/knee_l/knee_flexion_l/accel	/jointset/knee_l/knee_adduction_l/accel	/jointset/knee_l/knee_rotation_l/accel	/jointset/ankle_l/ankle_angle_l/accel	/jointset/subtalar_l/subtalar_angle_l/accel	gamma_cid13_p0	gamma_cid13_p1	gamma_cid13_p2	gamma_cid13_p3	gamma_cid13_p4	gamma_cid13_p5	gamma_cid14_p0
1.5	-0.3671140051446409	-0.01456741353953532	0.7929571464343004	0.9804695339720572	-0.4307951578541201	-0.2823504918494912	-0.2193337313661555	0.6403315772285415	0.6403315772285075	-0.1679877385446547	-0.1605455476631918	0.06452848952743626	-0.04802555530725477	0.689668397416355	0.2810358327084576	0.3919568279768211	-2.117332503519095	0.2245609794684372	-0.6387189281777672	0.3281985518666227	-1.567905763819916	-1.567905763819872	-0.01763852447123991	0.07788208374850855	-0.2479865520952768	0.1317495881134443	-0.1752595883180485	0.03559914562449945	-0.003607227791942437	-0.1631530858513045	0.03032946214124738	0.04365887204282125	0.1679119433498532	-23.36959563912105	-18.6790571629156	6.993807117590197	-3.976483474844203	-527.2644931826221	-64.07049844896898	-32.92210475383649	0.4756514130994058	0.5351924261708491	-0.3307618131467776	-1.129565082436383	0.6003424602064539	-0.09218721651985828	1.314141325877044	-1.076746855795372	-1.076746855795333	0.01482239883747083	0.1956533736409672	-0.2127558301257462	0.522614740168052	5.038876314464517e-08	9.581809608145604e-07	1.2933402645627e-08	2.386415869072328e-07	1.350536998270662e-07	3.925447707156804e-08	1.381809177592832e-07
1.51	-0.3601938768013007	-0.01173060685801472	0.796859377310553	0.9592417426753401	-0.428520423198599	-0.2887430328497803	-0.215987140630499	0.6246009761168907	0.624600976116912	-0.1681640347133046	-0.1597590143217438	0.0620382118741546	-0.04668284050251432	0.6942598792500625	0.2862867210212361	0.3884077509817732	-2.12791956062402	0.2303611516126886	-0.6397022860683709	0.3410715949005309	-1.57798967042665	-1.577989670426616	-0.0176211973918265	0.07941089181134132	-0.2500289038668986	0.1367825742114976	-0.1693525508052945	0.03430514479577438	-0.003656192777546443	-0.161488890936284	0.03053717874743435	0.04254354148363104	0.1631796066551211	-23.14196107254345	-18.2769289054171	6.978130779742174	-3.822303746273086	-524.2063873375945	-64.19188320474278	-33.5717531855324	0.4362654179641758	0.5142712884389081	-0.379192991027952	-0.9773689348259105	0.565979637089729	-0.08824951682923653	1.266685737674337	-0.9405217847622221	-0.940521784763796	-0.004699148343392709	0.1294069370984813	-0.1939374595320521	0.491850370485813	4.162494234238885e-08	1.007828169324572e-06	4.143795504837958e-08	2.51552877830954e-07	1.353332317480616e-07	4.849858569717602e-08	1.375125778679195e-07
1.52	-0.3532307598697195	-0.008842444442445245	0.8007236749471864	0.9379172622255378	-0.4261884618125047	-0.2951427753172756	-0.212513259475393	0.6087762740948764	0.6087762740949001	-0.1683401350134639	-0.1589576104166761	0.05952871818139101	-0.04529015387161943	0.6982661150620607	0.2913069795182328	0.3843701800529813	-2.136670334141177	0.2360063255791263	-0.6401592216189081	0.3536566357555055	-1.586725945899371	-1.586725945899348	-0.01759935074584917	0.08085619645392875	-0.251829759992581	0.1417439533440362	-0.1634455132923621	0.03301114396711972	-0.003705157763643564	-0.1598246960211608	0.03074489535365393	0.04142821092454366	0.1584472699605169	-22.92307819936576	-17.8745439319548	6.963870822223335	-3.659150304714523	-521.2794259692096	-64.34465402724338	-34.2066212366603	0.3586022087576679	0.4890664630144713	-0.4284605998955705	-0.7623083648829839	0.5693428246437341	0.01309725149340319	1.256540890090405	-0.8072206289930325	-0.8072206289930192	0.01572631215027688	0.1789526895918737	-0.1644567009378992	0.5082933470651074	4.002455047991362e-08	1.038279506723772e-06	3.367352511036225e-08	2.561983339373724e-07	1.432820189378036e-07	5.934929629149049e-08	1.397903705513857e-07
1.53	-0.3462305039070127	-0.005905274272153615	0.8045452123648589	0.9165143940636125	-0.4238009040050414	-0.3015443763098057	-0.2089151148663169	0.5928709411756934	0.5928709411756926	-0.1685161838886415	-0.1581420997748734	0.05700242529031604	-0.04384829498851912	0.7016831362853235	0.2960835908070284	0.3798606212792087	-2.143590957812486	0.2414748036235261	-0.6400737524673835	0.3659141902111756	-1.594108390047862	-1.594108390047845	-0.01761125671137626	0.08223251755148391	-0.2533852224985147	0.1466131994438458	-0.1574695605866985	0.03155321124650964	-0.003795844281797477	-0.1582258121920649	0.03108959629339175	0.04024575577896588	0.1536395329234339	-22.66505225259466	-17.45038301826243	6.946735847452898	-3.502050364539443	-518.3881605322845	-64.46563345964627	-34.82353556975941	0.3179387117572302	0.4654888710260585	-0.4736722470441387	-0.6101097808963273	0.5308871503332789	0.01947874352283968	1.201648346200546	-0.668948743355395	-0.6689487433564169	-0.009590766602895691	0.1149067217767201	-0.1445268264013732	0.4738841070613498	4.603530186595572e-08	1.048335231067735e-06	-1.262669856472269e-08	2.520613405504067e-07	1.593793898505886e-07	7.190702147755559e-08	1.451984290956084e-07
